# xmcd CD database file
#
# Track frame offsets:
#	150
#	28719
#	37454
#	45319
#	87938
#	88886
#	97985
#	112237
#	135072
#	143759
#	156431
#	176344
#	183883
#
# Disc length: 2793 seconds
#
# Revision: 0
# Processed by: cddbd v1.5.1PL0 Copyright (c) Steve Scherf et al.
# Submitted via: CDex 1.51
#
DISCID=a70ae70d
DTITLE=Black Sabbath - Reincarnation [CD2]
DYEAR=1900
DGENRE=Heavy Metal
TTITLE0=Computer God #1
TTITLE1=Computer God #2
TTITLE2=Conversation With Cozy and Ronnie
TTITLE3=Computer God #3 (With Ronnie James Dio)
TTITLE4=Computer God #4
TTITLE5=Computer God #5
TTITLE6=Computer God #6
TTITLE7=Unreleased Track #1
TTITLE8=Unreleased Track #2
TTITLE9=Unreleased Track #3
TTITLE10=Unreleased Track #4
TTITLE11=Conversation With Cozy and Ronnie
TTITLE12=Unreleased Song #5 (With Ronnie James Dio)
EXTD=
EXTT0=
EXTT1=
EXTT2=
EXTT3=
EXTT4=
EXTT5=
EXTT6=
EXTT7=
EXTT8=
EXTT9=
EXTT10=
EXTT11=
EXTT12=
PLAYORDER=
